<?xml version="1.0" encoding="UTF-8" standalone="no"?>
<svg
   version="1.1"
   viewBox="0 0 725.06599 20.367535"
   width="725.06598"
   height="20.367535"
   id="svg3"
   xmlns="http://www.w3.org/2000/svg"
   xmlns:svg="http://www.w3.org/2000/svg">
    <!-- svg-source:excalidraw -->
    <defs
     id="defs1">
        <style
       class="style-fonts"
       id="style1" />
    </defs>
    <g
     stroke-linecap="round"
     id="g3"
     transform="matrix(1.0413725,0,0,0.99938832,-9.3719514,-8.4747977)">
        <g
       transform="translate(10.579615,19.819985)"
       fill-rule="evenodd"
       id="g2">
            <path
         d="m 3,2.21 65.54,-0.32 42.95,-2.35 80.68,3.1 71.41,-0.81 52.37,2.64 103.51,-6.26 74.77,7.26 87.39,-5.88 52.46,1.94 56.38,-0.73 4.1,-6.98 L 4.22,-11.34 -1.34,2.8"
         stroke="none"
         stroke-width="0"
         fill="#d2bab0"
         fill-rule="evenodd"
         id="path1" />
            <path
         d="M 2.25,1.2 C 17.66,-1.7 40.03,-1.19 67.79,6.91 M 0.78,1.02 C 18.3,3.23 34.56,4.91 66.04,7.48 M 63.28,7.67 C 85.96,4.95 98.29,5.11 117.62,2.32 M 66.43,4.41 c 17.38,1.48 33.75,-2.75 49.54,-2.9 m 0.09,2.22 c 26.48,-4.4 57.7,-0.03 77.46,1.75 M 112.9,2.13 c 23.53,0.43 49.06,3.65 81.85,0.65 m 2,4.16 C 207.38,3.68 219.71,4.4 260.38,2.72 M 195.97,2.36 c 14.33,1.79 28.56,2.56 65.87,1.34 m 1.48,4.34 c 11.85,-5.83 29.83,-1.4 57.62,-8.49 M 260.8,5.03 C 282.75,2.15 299.64,4.46 318.68,2.88 M 318.62,1.94 C 346.8,0.9 374.61,3.21 421.05,-2.21 M 319.02,3.83 c 30.2,-4.4 63.6,-5.11 98.94,-0.62 m -2.38,1.65 c 19.57,-2.72 47,-0.85 78.5,-5.37 m -76.03,0.69 c 30.41,3.96 59.73,5.99 80.15,2.58 m -4.53,-0.48 c 28.34,1.58 53.06,-0.66 85.14,-1.63 M 495.6,2.2 c 23.25,0.08 44.92,0.59 86,-0.84 m -0.83,-2.77 c 19.41,1.56 29.83,2.56 54.99,6.77 m -54.2,-6.1 c 16.31,1.88 32.37,6.4 54.88,6.46 m -2.96,1.55 c 24.83,-3.92 46.79,0.93 59.45,-7.01 m -56.5,2.87 c 10.05,0.91 23.15,-0.02 54.54,1.72 m 0.47,-2.37 c -1.51,-0.35 2.24,-8.91 0.03,-11.48 m 1.35,12.69 c -0.08,-2.37 -1.05,-7.62 -0.38,-11.21 m 1.24,-1.54 C 509.39,-10.2 324.58,-10.25 1.37,-7.83 M 692.29,-8.79 C 457.14,-6.39 221.45,-7.48 0,-8.44 m -0.58,0.64 c 1.56,0.14 0.39,2.83 1.73,9.03 M 1,-7.93 c -0.95,2.67 -1.19,5.87 -1.17,7.39 M 0,0 c 0,0 0,0 0,0 m 0,0 c 0,0 0,0 0,0"
         stroke="#1e1e1e"
         stroke-width="2"
         fill="none"
         id="path2" />
        </g>
    </g>
</svg>